<svg xmlns="http://www.w3.org/2000/svg" width="223.863" height="82.031" viewBox="0 0 223.863 82.031">
  <g id="Groupe_1908" data-name="Groupe 1908" transform="translate(-773.773 -925.511)">
    <g id="Groupe_1904" data-name="Groupe 1904" transform="translate(881.05 948.007)">
      <path id="Tracé_3597" data-name="Tracé 3597" d="M935.149,960.939a6.534,6.534,0,0,0-5.173-2.624,4.034,4.034,0,0,0-3.074,1.275,3.276,3.276,0,0,0-1.2,2.024q0,.825-1.425,1.949t-1.425,1.425a8.35,8.35,0,0,1-1.237,1.537,6.316,6.316,0,0,0-1.237,1.612q0,.376-1.125,1.05-1.05.75-.825,1.649a2.191,2.191,0,0,1-.375,1.8q-.6,1.05-.375,1.35a.681.681,0,0,1-.075.9,13.192,13.192,0,0,0-.75,4.648v1.05a16.265,16.265,0,0,0,1.35,6.748,8.564,8.564,0,0,0,3.524,4.2,10.16,10.16,0,0,0,4.5.826q1.125,0,1.125-.3t1.425-.6a5.2,5.2,0,0,0,2.249-1.05,2.812,2.812,0,0,1,1.5-.824q.6,0,.6-.375a8.478,8.478,0,0,1,1.874-2.4,22.6,22.6,0,0,0,3.074-3.9,15.006,15.006,0,0,0,.525-4.648q.074-.749.075-2.174,0-1.874-.75-7.872A13.334,13.334,0,0,0,935.149,960.939Zm-1.275,20.843a12.642,12.642,0,0,1-3.861,4.274,8.261,8.261,0,0,1-4.686,1.874,3.27,3.27,0,0,1-2.7-1.35,4.032,4.032,0,0,1-1.05-2.024.968.968,0,0,0-.375-.9c-.3-.2-.326-.524-.075-.974a5.832,5.832,0,0,0,.15-1.874v-1.35a4.916,4.916,0,0,1,.225-1.949,3.568,3.568,0,0,0,.112-.937q.037-.787.075-1.5t.262-.712q.3,0,.6-1.35a8.392,8.392,0,0,1,1.312-2.774q1.086-1.649,1.612-1.649t1.05-1.5a8.711,8.711,0,0,1,1.987-2.587,5.833,5.833,0,0,1,2.212-1.687c.15,0,.424.251.825.75a9.457,9.457,0,0,1,1.8,3.9,28.608,28.608,0,0,1,.825,4.236q.15,1.613.375,5.061.074.75.075,1.874A6.962,6.962,0,0,1,933.875,981.782Z" transform="translate(-916.855 -956.216)" fill="#fff"/>
      <path id="Tracé_3598" data-name="Tracé 3598" d="M969.776,980.632a20.115,20.115,0,0,0,.075-2.024,23.02,23.02,0,0,0-.825-6.524q-.827-2.771-2.249-3.523a5.61,5.61,0,0,0-2.474-.45,5.4,5.4,0,0,0-2.4.45,3.068,3.068,0,0,1-.525.149q-.975,0-1.05-6.748-.075-3.672-.187-4.46a2.084,2.084,0,0,0-.712-1.312,2.735,2.735,0,0,0-1.5-.675q-.9,0-1.125,1.05a63.444,63.444,0,0,0-.375,7.76q-.151,7.161-.225,14.733T956.13,987q0,.3-.038.712c-.026.275-.037.463-.037.562q0,.9.525.9a.933.933,0,0,0,.225-.038,1.07,1.07,0,0,1,.225-.037,3.519,3.519,0,0,0,2.249-.787,4.62,4.62,0,0,0,.825-2.512q.225-2.249.75-2.549.45-.3,0-2.024a8.73,8.73,0,0,1-.225-1.35,4.638,4.638,0,0,1,.187-1.012,6.705,6.705,0,0,0,.187-1.687v-.75a11.393,11.393,0,0,1,.15-2.362,2.256,2.256,0,0,1,.75-1.087,2.873,2.873,0,0,1,1.649-.675q1.575.3,1.8,10.2l.15,5.923,1.2-.075a5.836,5.836,0,0,0,2.587-.562q.562-.412.562-2.213,0-1.348-.075-2.249c0-.2-.013-.474-.037-.824s-.037-.6-.037-.75.012-.362.037-.637S969.776,980.682,969.776,980.632Z" transform="translate(-926.664 -955.515)" fill="#fff"/>
      <path id="Tracé_3599" data-name="Tracé 3599" d="M1066.573,990.259a16.343,16.343,0,0,1-.6-3.523q-.376-2.4-1.05-5.1a16.948,16.948,0,0,1-.825-4.124,2.96,2.96,0,0,0-1.125-1.911,3.6,3.6,0,0,0-1.949-1.162,6.076,6.076,0,0,1-1.012-.113,6.114,6.114,0,0,0-.937-.112,1.8,1.8,0,0,0-1.05.375,28.95,28.95,0,0,0-5.661,4.2q-2.213,2.175-2.212,3.449t.75,1.274q1.874,0,5.173-3.073a17.287,17.287,0,0,1,2.7-2.324q.749,0,1.425,1.05a5.424,5.424,0,0,1,.825,2.324l.3,2.024h-1.5c-1,0-1.5.1-1.5.3q0,.376-1.8.9a5.283,5.283,0,0,0-2.624,1.5q-.825.975-1.275.975-.3,0-.825.975a6.06,6.06,0,0,0-.675,1.874,9.71,9.71,0,0,0-.45,2.774,5,5,0,0,0,.3,1.724,2.8,2.8,0,0,0,2.1,2.024q1.648.525,2.1.074.374-.373,1.275.151a4.091,4.091,0,0,0,2.1.45,4.569,4.569,0,0,0,3-.825,2.226,2.226,0,0,1,.862-.562q.262-.037.787.487a1.916,1.916,0,0,0,.825.45,4.331,4.331,0,0,0,1.275-.675q1.35-1.049,1.425-1.8a7.828,7.828,0,0,0,.075-1.5Q1066.8,990.261,1066.573,990.259Zm-4.648,1.425c-.45,0-.726.15-.825.449s-.7.451-1.8.451a10.458,10.458,0,0,1-2.549-.3q-1.35-.226-1.35-1.2t1.649-1.95a7.667,7.667,0,0,0,1.8-1.424.915.915,0,0,1,.825-.525,2.434,2.434,0,0,1,1.425.675,3.806,3.806,0,0,1,1.274,3C1062.374,991.411,1062.224,991.684,1061.924,991.684Z" transform="translate(-950.211 -960.194)" fill="#fff"/>
      <path id="Tracé_3600" data-name="Tracé 3600" d="M1001.174,990.259a16.356,16.356,0,0,1-.6-3.523q-.376-2.4-1.05-5.1a16.945,16.945,0,0,1-.825-4.124,2.959,2.959,0,0,0-1.125-1.911,3.593,3.593,0,0,0-1.949-1.162,6.074,6.074,0,0,1-1.012-.113,6.112,6.112,0,0,0-.937-.112,1.8,1.8,0,0,0-1.05.375,28.941,28.941,0,0,0-5.661,4.2q-2.212,2.175-2.212,3.449t.75,1.274q1.874,0,5.173-3.073a17.283,17.283,0,0,1,2.7-2.324q.749,0,1.424,1.05a5.427,5.427,0,0,1,.825,2.324l.3,2.024h-1.5c-1,0-1.5.1-1.5.3q0,.376-1.8.9a5.285,5.285,0,0,0-2.624,1.5q-.826.975-1.275.975-.3,0-.825.975a6.078,6.078,0,0,0-.675,1.874,9.711,9.711,0,0,0-.45,2.774,5,5,0,0,0,.3,1.724,2.8,2.8,0,0,0,2.1,2.024q1.648.525,2.1.074.375-.373,1.275.151a4.093,4.093,0,0,0,2.1.45,4.569,4.569,0,0,0,3-.825,2.231,2.231,0,0,1,.862-.562q.262-.037.787.487a1.916,1.916,0,0,0,.825.45,4.333,4.333,0,0,0,1.275-.675q1.35-1.049,1.425-1.8a7.839,7.839,0,0,0,.075-1.5Q1001.4,990.261,1001.174,990.259Zm-4.648,1.425q-.675,0-.825.449t-1.8.451a10.46,10.46,0,0,1-2.549-.3q-1.35-.226-1.35-1.2t1.649-1.95a7.664,7.664,0,0,0,1.8-1.424.916.916,0,0,1,.825-.525,2.432,2.432,0,0,1,1.425.675,3.8,3.8,0,0,1,1.275,3C996.975,991.411,996.825,991.684,996.525,991.684Z" transform="translate(-933.846 -960.194)" fill="#fff"/>
      <path id="Tracé_3601" data-name="Tracé 3601" d="M1034.06,986.388c.025-.25.038-.424.038-.525a8.209,8.209,0,0,0-.226-1.5,7.656,7.656,0,0,0-1.762-3.9,5.681,5.681,0,0,0-3.636-1.05q-2.551,0-2.85.45-.224.376-1.125.375a2.078,2.078,0,0,0-1.5.675,1.356,1.356,0,0,1-1.125.6,1.928,1.928,0,0,1-1.5-.826,2.856,2.856,0,0,0-2.324-.9,1.159,1.159,0,0,0-.824.225,2.123,2.123,0,0,0-.075.825,90.188,90.188,0,0,0,.9,11.921q.524,4.723,1.725,4.724a3.073,3.073,0,0,0,1.874-1.125,4.086,4.086,0,0,0,.937-1.238,5.974,5.974,0,0,0,.187-1.836v-1.35a21.163,21.163,0,0,0-.375-3.973,3.467,3.467,0,0,1-.151-1.8,1.411,1.411,0,0,1,.937-1.312,11.73,11.73,0,0,1,3.337-.413l2.173-.074.451,2.249a14.465,14.465,0,0,1,.375,3c0,.2-.014.5-.038.9s-.037.674-.037.825a11.293,11.293,0,0,0,.375,3.149c.25.851.574,1.275.975,1.275a.65.65,0,0,0,.45-.225,2.007,2.007,0,0,1,1.05-.525,1.893,1.893,0,0,0,1.275-.675,3.193,3.193,0,0,0,.6-2.249v-1.275q-.151-3.3-.149-3.749A6.718,6.718,0,0,1,1034.06,986.388Z" transform="translate(-941.954 -961.496)" fill="#fff"/>
    </g>
    <g id="Groupe_1905" data-name="Groupe 1905" transform="translate(773.773 925.511)">
      <path id="Tracé_3602" data-name="Tracé 3602" d="M831.931,987.738l1.662.76-2.243,2.837c1.634,2.13,4.229,4.09.133,7.267,4.027-.388,5.775.637,4.64,4.223-.235.743.626,1.766.681,2.68.286,4.706-.552,7.075-4.673,8.163-2.621.692-5.231,1.71-7.891,1.885s-5.381-.518-8.576-.889c-4.084,7.192-11.183,3.108-16.483-1.213-6.364-5.188-6.941-12.5-8.167-19.573-.364-2.1-.391-4.265-.8-6.45-.706-3.778.059-7.316,4.635-9.086,3.447-1.333,6.3-4.328,9.782-5.411a20.655,20.655,0,0,1,10.1-.277c6.092,1.324,12.007,3.464,18.243,5.34.982-3.2-1.536-8.3,4.19-8.332,1.266-.008,3.219,2.165,3.672,3.687.75,2.512-2.571,5.183-5.7,5.763C834.013,982.146,833.068,984.685,831.931,987.738Z" transform="translate(-777.83 -936.56)" fill="#fff"/>
      <path id="Tracé_3603" data-name="Tracé 3603" d="M810.868,951.186c3.137,1.258,2.988,3.678,1.914,6.314-1.209,2.967-3.807,2.719-6.188,2.324a3.454,3.454,0,0,1-2.405-2.1,52.09,52.09,0,0,1-.434-8.645c.1-3.855.482-7.7.712-11.554.112-1.88-.248-3.908.354-5.6.5-1.421,2.082-3.411,3.209-3.427,1.539-.022,3.272,1.4,4.583,2.579.655.589.788,2.023.758,3.063-.13,4.376-.3,8.759-.7,13.116C812.549,948.5,811.588,949.672,810.868,951.186Z" transform="translate(-781.27 -926.258)" fill="#fff"/>
      <path id="Tracé_3604" data-name="Tracé 3604" d="M829.984,938.246l1.725,5.08-4.115.608-.231.939,6.936,1.84-5.557,1.144c.111,1.686.207,3.148.314,4.786,2.746-.958,3.625.675,3.341,3.04-.262,2.184-1.227,3.193-4,2.586-5.46-1.193-5.826-2.291-3.783-8.022,2.028-5.688,3.1-11.715,4.6-17.591.334-1.312.3-3.064,1.142-3.826,1.64-1.479,3.765-3.28,5.722-3.318,2.252-.045,3.814,4.99,2.694,7.441C837.106,936.592,834.815,939.37,829.984,938.246Z" transform="translate(-786.208 -925.511)" fill="#fff"/>
      <path id="Tracé_3605" data-name="Tracé 3605" d="M782.4,958.916l2.429,6.484.185-.117c.861,1.745,2.051,3.419,2.457,5.265.229,1.042-.83,2.367-1.309,3.564-1.328-.627-2.914-.984-3.923-1.946a27.538,27.538,0,0,1-3.838-4.994,20.684,20.684,0,0,1-1.6-3.575c-.458-1.128-.549-2.594-1.336-3.367-2.5-2.462-1.733-5.276-.834-7.843.324-.926,2.433-1.82,3.648-1.723,2.868.229,4.092,2.428,4.143,5.117a9.9,9.9,0,0,1-.967,3.025Z" transform="translate(-773.773 -931.803)" fill="#fff"/>
      <path id="Tracé_3606" data-name="Tracé 3606" d="M864.095,1009.644c0-1.127-.378-2.327.062-2.941,2.481-3.456,2.554-9.3,8.314-9.538,2.618-.109,5.35.951,7.884,1.88.448.164.716,2.942.149,3.418C875.888,1006.336,871.359,1010.635,864.095,1009.644Z" transform="translate(-796.337 -943.439)" fill="#fff"/>
      <path id="Tracé_3607" data-name="Tracé 3607" d="M863.437,954.037c-.932-1.835-3.091-4.3-2.539-5.374,1.114-2.158,3.7-3.556,5.682-5.267,1.116,1.335,3.433,3.149,3.127,3.919-.989,2.484-2.943,4.584-4.525,6.833Z" transform="translate(-795.553 -929.986)" fill="#fff"/>
      <path id="Tracé_3608" data-name="Tracé 3608" d="M853.548,958.137c2.325-2.18,4.027-.272,5.429,1.371.423.5-.316,1.984-.522,3.017-1.061-.215-2.452-.092-3.1-.728C854.478,960.938,854.175,959.5,853.548,958.137Z" transform="translate(-793.736 -933.43)" fill="#fff"/>
    </g>
  </g>
</svg>
