<svg xmlns="http://www.w3.org/2000/svg" viewBox="0 0 298.58 109.41"><defs><style>.cls-1{fill:#0072ce;}</style></defs><g id="Calque_2" data-name="Calque 2"><g id="Logo"><path class="cls-1" d="M167.48,36.3a8.71,8.71,0,0,0-6.9-3.5,5.39,5.39,0,0,0-4.1,1.7,4.37,4.37,0,0,0-1.6,2.7c0,.74-.63,1.6-1.9,2.6s-1.9,1.64-1.9,1.9a10.8,10.8,0,0,1-1.65,2,8.3,8.3,0,0,0-1.65,2.16c0,.33-.5.79-1.5,1.39s-1.3,1.4-1.1,2.2a3,3,0,0,1-.5,2.41c-.53.93-.7,1.53-.5,1.79a.92.92,0,0,1-.1,1.21c-.53,1.06-.87,3.13-1,6.19v1.4a21.65,21.65,0,0,0,1.8,9,11.41,11.41,0,0,0,4.7,5.6,13.5,13.5,0,0,0,6,1.1c1,0,1.5-.13,1.5-.4s.63-.53,1.9-.8a6.85,6.85,0,0,0,3-1.4,3.77,3.77,0,0,1,2-1.1c.53,0,.8-.16.8-.5s.83-1.4,2.5-3.2a30.24,30.24,0,0,0,4.1-5.2c.4-.86.63-2.93.7-6.19.07-.67.1-1.64.1-2.91q0-2.49-1-10.5Q170.39,39.61,167.48,36.3Zm-1.7,27.8a16.73,16.73,0,0,1-5.15,5.7,11,11,0,0,1-6.25,2.5,4.35,4.35,0,0,1-3.6-1.8,5.37,5.37,0,0,1-1.4-2.7,1.29,1.29,0,0,0-.5-1.2c-.4-.26-.43-.69-.1-1.3a7.86,7.86,0,0,0,.2-2.5V61a6.48,6.48,0,0,1,.3-2.59,4.52,4.52,0,0,0,.15-1.25c0-.71.07-1.37.1-2s.15-1,.35-1,.53-.6.8-1.79a11.19,11.19,0,0,1,1.75-3.71c1-1.46,1.68-2.2,2.15-2.2s.93-.66,1.4-2a11.8,11.8,0,0,1,2.65-3.45c1.43-1.43,2.42-2.18,3-2.25.2,0,.57.34,1.1,1a12.67,12.67,0,0,1,2.4,5.2,37.7,37.7,0,0,1,1.1,5.66q.19,2.15.5,6.75a24.74,24.74,0,0,1,.1,2.5A9.2,9.2,0,0,1,165.78,64.1Z"/><path class="cls-1" d="M200.58,63.5a25.57,25.57,0,0,0,.1-2.7,30.83,30.83,0,0,0-1.1-8.7c-.73-2.46-1.73-4-3-4.69a7.33,7.33,0,0,0-3.3-.61,7.07,7.07,0,0,0-3.2.61,3.91,3.91,0,0,1-.7.19c-.87,0-1.33-3-1.4-9-.07-3.26-.15-5.25-.25-5.94a2.75,2.75,0,0,0-.95-1.75,3.61,3.61,0,0,0-2-.91q-1.2,0-1.5,1.41-.3.79-.5,10.34t-.3,19.66q-.1,10.09-.1,10.59c0,.27,0,.59,0,1s-.05.62-.05.75c0,.8.23,1.21.7,1.21a1.11,1.11,0,0,0,.3-.06,1.53,1.53,0,0,1,.3,0,4.64,4.64,0,0,0,3-1,6.15,6.15,0,0,0,1.1-3.34c.2-2,.53-3.14,1-3.41s.4-1.16,0-2.7a11.54,11.54,0,0,1-.3-1.8,6,6,0,0,1,.25-1.34,8.84,8.84,0,0,0,.25-2.25v-1a15.63,15.63,0,0,1,.2-3.16,3,3,0,0,1,1-1.45,3.8,3.8,0,0,1,2.2-.89q2.1.39,2.4,13.59l.2,7.91,1.6-.11a7.7,7.7,0,0,0,3.45-.75c.5-.36.75-1.35.75-3,0-1.19,0-2.19-.1-3,0-.26,0-.63-.05-1.1s-.05-.8-.05-1,0-.48.05-.84S200.58,63.57,200.58,63.5Z"/><path class="cls-1" d="M298.28,70.1c-.13,0-.4-1.56-.8-4.69q-.5-3.21-1.4-6.81a22.3,22.3,0,0,1-1.1-5.5,4,4,0,0,0-1.5-2.55,4.86,4.86,0,0,0-2.6-1.55,8.18,8.18,0,0,1-1.35-.15,8,8,0,0,0-1.25-.15,2.4,2.4,0,0,0-1.4.5,38.75,38.75,0,0,0-7.55,5.6c-2,1.94-2.95,3.47-2.95,4.61s.33,1.69,1,1.69c1.67,0,4-1.36,6.9-4.1a23,23,0,0,1,3.6-3.09c.67,0,1.3.46,1.9,1.39a7.34,7.34,0,0,1,1.1,3.11l.4,2.69h-2c-1.33,0-2,.14-2,.4s-.8.74-2.4,1.2a7.1,7.1,0,0,0-3.5,2c-.73.87-1.3,1.3-1.7,1.3s-.63.44-1.1,1.3a8,8,0,0,0-.9,2.5,13,13,0,0,0-.6,3.7,6.59,6.59,0,0,0,.4,2.3,3.72,3.72,0,0,0,2.8,2.7c1.46.47,2.4.5,2.8.1s.9-.26,1.7.2a5.46,5.46,0,0,0,2.8.61,6.06,6.06,0,0,0,4-1.11,3.07,3.07,0,0,1,1.15-.75c.23,0,.58.19,1,.65a2.53,2.53,0,0,0,1.1.6,5.85,5.85,0,0,0,1.7-.89c1.2-.94,1.83-1.74,1.9-2.41a10.06,10.06,0,0,0,.1-2C298.58,71.24,298.48,70.1,298.28,70.1Zm-6.2,1.9c-.6,0-1,.2-1.1.6s-.93.6-2.4.6a13.78,13.78,0,0,1-3.4-.4c-1.2-.2-1.8-.73-1.8-1.6s.73-1.73,2.2-2.6a10,10,0,0,0,2.4-1.9,1.22,1.22,0,0,1,1.1-.7,3.23,3.23,0,0,1,1.9.91,5.08,5.08,0,0,1,1.7,4C292.68,71.64,292.48,72,292.08,72Z"/><path class="cls-1" d="M232.88,70.1c-.13,0-.4-1.56-.8-4.69q-.5-3.21-1.4-6.81a22.79,22.79,0,0,1-1.1-5.5,4,4,0,0,0-1.5-2.55,4.86,4.86,0,0,0-2.6-1.55,8.29,8.29,0,0,1-1.35-.15,8,8,0,0,0-1.25-.15,2.42,2.42,0,0,0-1.4.5,38.75,38.75,0,0,0-7.55,5.6c-2,1.94-3,3.47-3,4.61s.33,1.69,1,1.69c1.67,0,4-1.36,6.9-4.1a23,23,0,0,1,3.6-3.09c.67,0,1.3.46,1.9,1.39a7.21,7.21,0,0,1,1.1,3.11l.4,2.69h-2c-1.33,0-2,.14-2,.4s-.8.74-2.4,1.2a7.1,7.1,0,0,0-3.5,2c-.73.87-1.3,1.3-1.7,1.3s-.63.44-1.1,1.3a8,8,0,0,0-.9,2.5,13,13,0,0,0-.6,3.7,6.59,6.59,0,0,0,.4,2.3,3.72,3.72,0,0,0,2.8,2.7c1.47.47,2.4.5,2.8.1s.9-.26,1.7.2a5.46,5.46,0,0,0,2.8.61,6.06,6.06,0,0,0,4-1.11,3.15,3.15,0,0,1,1.15-.75c.23,0,.58.19,1,.65a2.53,2.53,0,0,0,1.1.6,5.85,5.85,0,0,0,1.7-.89c1.2-.94,1.83-1.74,1.9-2.41a10.06,10.06,0,0,0,.1-2C233.18,71.24,233.08,70.1,232.88,70.1Zm-6.2,1.9c-.6,0-1,.2-1.1.6s-.93.6-2.4.6a13.83,13.83,0,0,1-3.4-.4c-1.2-.2-1.8-.73-1.8-1.6s.73-1.73,2.2-2.6a10,10,0,0,0,2.4-1.9,1.23,1.23,0,0,1,1.1-.7,3.2,3.2,0,0,1,1.9.91,5.08,5.08,0,0,1,1.7,4C227.28,71.64,227.08,72,226.68,72Z"/><path class="cls-1" d="M265.93,63.2c0-.33.05-.56.05-.7a11.1,11.1,0,0,0-.3-2c-.6-2.59-1.38-4.33-2.35-5.2s-2.58-1.33-4.85-1.39-3.53.19-3.8.59-.7.5-1.5.5a2.75,2.75,0,0,0-2,.91,1.81,1.81,0,0,1-1.5.79,2.56,2.56,0,0,1-2-1.1,3.81,3.81,0,0,0-3.1-1.19,1.56,1.56,0,0,0-1.1.29,2.82,2.82,0,0,0-.1,1.1,120.24,120.24,0,0,0,1.2,15.9c.47,4.21,1.23,6.3,2.3,6.3a4.09,4.09,0,0,0,2.5-1.5,5.27,5.27,0,0,0,1.25-1.65,7.77,7.77,0,0,0,.25-2.44V70.6a27.76,27.76,0,0,0-.5-5.3,4.61,4.61,0,0,1-.2-2.39,1.87,1.87,0,0,1,1.25-1.75,15.31,15.31,0,0,1,4.45-.56l2.9-.1.6,3a19.5,19.5,0,0,1,.5,4c0,.27,0,.67-.05,1.2s-.05.9-.05,1.1a15.19,15.19,0,0,0,.5,4.2c.33,1.14.77,1.7,1.3,1.7a.89.89,0,0,0,.6-.29,2.7,2.7,0,0,1,1.4-.71,2.49,2.49,0,0,0,1.7-.9,4.26,4.26,0,0,0,.8-3V69.1c-.13-2.93-.2-4.6-.2-5S265.9,63.54,265.93,63.2Z"/><path class="cls-1" d="M72.16,68.26l2.21,1-3,3.79c2.18,2.84,5.64,5.45.18,9.69,5.37-.52,7.7.85,6.19,5.63-.32,1,.83,2.36.91,3.58.38,6.28-.74,9.43-6.24,10.89-3.49.92-7,2.28-10.52,2.51s-7.18-.69-11.44-1.18c-5.45,9.59-14.92,4.14-22-1.62C20,95.64,19.22,85.89,17.58,76.45c-.48-2.8-.52-5.69-1.06-8.6-.94-5,.08-9.76,6.18-12.12C27.3,54,31.1,50,35.75,48.51a27.64,27.64,0,0,1,13.47-.37c8.13,1.77,16,4.62,24.34,7.13,1.31-4.27-2-11.07,5.58-11.12,1.69,0,4.3,2.89,4.9,4.92,1,3.35-3.43,6.91-7.6,7.69C74.93,60.8,73.67,64.19,72.16,68.26Z"/><path class="cls-1" d="M39.48,33.25c4.18,1.68,4,4.9,2.55,8.42-1.61,4-5.08,3.63-8.25,3.1-1.24-.21-3.06-1.69-3.21-2.8A69.3,69.3,0,0,1,30,30.44c.13-5.14.64-10.27,1-15.41.15-2.51-.33-5.21.47-7.47C32.08,5.66,34.19,3,35.69,3c2.05,0,4.36,1.86,6.11,3.44.88.78,1.05,2.7,1,4.08-.17,5.84-.39,11.69-.94,17.5C41.72,29.67,40.44,31.23,39.48,33.25Z"/><path class="cls-1" d="M58.39,17l2.3,6.77-5.49.81-.31,1.26,9.25,2.45-7.41,1.53c.15,2.24.28,4.19.42,6.38,3.66-1.28,4.83.9,4.45,4.05-.34,2.92-1.63,4.26-5.33,3.45-7.29-1.59-7.78-3-5.05-10.7s4.14-15.62,6.14-23.46c.44-1.75.39-4.09,1.52-5.1,2.19-2,5-4.38,7.63-4.43,3-.06,5.09,6.66,3.59,9.92C67.88,14.78,64.83,18.48,58.39,17Z"/><path class="cls-1" d="M11.5,36.16l3.24,8.65.25-.15c1.15,2.32,2.73,4.56,3.28,7,.3,1.39-1.11,3.15-1.75,4.75-1.77-.84-3.89-1.31-5.23-2.6a36.38,36.38,0,0,1-5.12-6.66A28,28,0,0,1,4,42.41c-.61-1.51-.73-3.46-1.78-4.5-3.34-3.28-2.31-7-1.11-10.46C1.58,26.22,4.39,25,6,25.16c3.83.3,5.46,3.23,5.53,6.82,0,1.34-.84,2.69-1.29,4Z"/><path class="cls-1" d="M90.37,88.3c0-1.5-.5-3.1.08-3.92,3.31-4.61,3.41-12.41,11.09-12.72,3.5-.15,7.14,1.27,10.52,2.5.6.22,1,3.93.2,4.56C106.1,83.89,100.06,89.62,90.37,88.3Z"/><path class="cls-1" d="M90.54,32.08c-1.24-2.45-4.12-5.74-3.39-7.17,1.49-2.88,4.94-4.74,7.58-7,1.49,1.78,4.58,4.2,4.17,5.22-1.32,3.32-3.92,6.12-6,9.12Z"/><path class="cls-1" d="M79.77,33c3.11-2.9,5.38-.36,7.25,1.83.56.66-.43,2.65-.7,4-1.42-.29-3.27-.13-4.14-1C81,36.69,80.61,34.77,79.77,33Z"/></g></g></svg>